<svg version="1.2" xmlns="http://www.w3.org/2000/svg" viewBox="0 0 545 553" width="545" height="553">
	<title>time-left-svgrepo-com (1)-svg</title>
	<style>
		.s0 { fill: #61d78e } 
		.s1 { fill: #4c4c4c } 
	</style>
	<g id="Layer">
		<g id="Layer_2_18_">
			<g id="Layer">
				<path id="Layer" fill-rule="evenodd" class="s0" d="m292.9 297.1l-3.5 10.2 31.3 37.5c7.2 8.6 11 14.3 5.3 31.2l-10.5 30.8 4.8 1.6c2.2 0.8 3.4 3.2 2.6 5.4l-6.4 18.8c-0.7 2.2-3.1 3.4-5.3 2.7l-154.7-52.6c-2.2-0.8-3.4-3.2-2.6-5.4l6.4-18.8c0.7-2.2 3.1-3.4 5.3-2.6l4.8 1.6 10.3-30.2c5.8-17.1 18.3-20.7 23.6-22.2 4.2-1.2 35.5-8 47.5-10.6l3.4-10.3-31.3-37.5c-7.2-8.6-10.9-14.3-5.2-31.2l12.1-35.7-4.8-1.6c-2.2-0.8-3.3-3.2-2.6-5.4l6.4-18.8c0.7-2.2 3.2-3.4 5.4-2.6l154.6 52.6c2.2 0.7 3.4 3.1 2.7 5.3l-6.4 18.8c-0.8 2.2-3.2 3.4-5.4 2.7l-4.8-1.6-11.9 35c-5.8 17.1-18.3 20.7-23.6 22.2-4.2 1.2-35.5 8.1-47.5 10.7zm-19.2 9.4l6.2-18.4c0.9-2.5 3-4.4 5.6-5 18.5-4 47.3-10.3 50.7-11.3 4.3-1.2 10.2-2.9 13.4-12.5l11.9-35-116.3-39.6-12.1 35.7c-1.7 5-2.3 8.3-1.9 10.2 0.4 1.6 1.8 3.3 4.4 6.4l0.1 0.1 33.9 40.6c1.7 2.1 2.2 4.8 1.4 7.4l-6.3 18.3c-0.8 2.5-2.9 4.4-5.5 5-18.6 4-47.4 10.3-50.7 11.3-4.3 1.2-10.2 2.9-13.4 12.5l-10.3 30.2 116.3 39.5 10.5-30.8c1.7-5 2.3-8.3 1.8-10.2-0.3-1.5-1.7-3.2-4.3-6.4l-34.1-40.7c-1.7-2.1-2.2-4.8-1.3-7.3z"/>
				<path id="Layer" class="s1" d="m366.9 458.6c-3.4 1.9-6.9 3.7-10.4 5.5q-0.8 0.4-1.6 0.9-0.9 0.3-1.7 0.6c-15.2 7.1-31 12.1-47.4 15q-0.3 0.1-0.6 0.1c-3.9 0.7-7.8 1.2-11.7 1.7q0 0-0.1 0-10.7 1.2-21.6 1.2c-83.8 0-155.4-53.8-181.8-128.7q-0.7-1.7-1.2-3.4c-6.4-19.1-9.8-39.6-9.8-60.8 0-21.2 3.4-41.7 9.8-60.8q0.2-0.6 0.4-1.3 0.6-1.6 1.2-3.3 0.3-0.8 0.6-1.5c22-59.3 72.4-104.9 134.5-120.3q0.1 0 0.1 0 1.4-0.3 2.8-0.7 0.2 0 0.3-0.1c13.6-3.1 27.7-4.7 42.1-4.8l0.2 19.8c0 6.2 3.9 8 8.6 4l41.9-35.5c4.7-4 4.7-10.5-0.1-14.4l-42.5-34.8c-4.7-3.9-8.6-2-8.5 4.1l0.1 19.8c-60.9 0.4-118.1 24.2-161.2 67.3q-6.3 6.4-12.1 13.2-0.1 0-0.1 0-0.2 0.3-0.4 0.6c-34 39.8-53.1 89.4-54.6 142q-0.1 0.6-0.1 1.2 0 2.7 0 5.4c0 2.8 0 5.8 0.1 8.7q0.1 0.5 0.1 1c2 47.9 18.5 93.3 47.6 130.8q0.2 0.2 0.3 0.4c2.9 3.7 5.9 7.3 8.9 10.8q0.3 0.4 0.7 0.7 4.6 5.2 9.6 10.2c34.1 34.2 77.1 56.2 123.7 64.1q0.3 0.1 0.5 0.1 0.1 0 0.3 0c12.4 2.1 25.2 3.2 38 3.2 33.9 0 66.5-7.2 97-21.5q1-0.4 1.9-1 1-0.3 2-0.8c4.2-2.1 8.4-4.3 12.4-6.6 8.9-5 12.1-16.3 7-25.1-5-8.9-16.3-12-25.2-7z"/>
				<path id="Layer" class="s1" d="m432 183.2c3.5 5.3 9.4 8.1 15.3 8.1 3.6 0 7.2-1 10.3-3.1 8.5-5.7 10.7-17.2 5.1-25.6-2.6-3.9-5.4-7.7-8.2-11.4-6.2-8.1-17.8-9.7-25.9-3.5-8.1 6.2-9.7 17.8-3.5 25.9 2.4 3.1 4.7 6.3 6.9 9.6z"/>
				<path id="Layer" class="s1" d="m455.4 231.7c1.2 3.7 2.3 7.5 3.3 11.3 2.1 8.4 9.6 13.9 17.9 13.9q2.3 0 4.6-0.5c9.9-2.6 15.8-12.6 13.3-22.5-1.1-4.5-2.4-9-3.9-13.5-3.1-9.7-13.5-15-23.2-11.9-9.7 3.1-15.1 13.5-12 23.2z"/>
				<path id="Layer" class="s1" d="m443.7 415.1c-7.8-6.6-19.4-5.8-26.1 1.9-2.5 3-5.2 5.9-8 8.7-7.1 7.3-6.9 19 0.4 26.1 3.5 3.5 8.2 5.3 12.9 5.3 4.8 0 9.6-1.9 13.2-5.6 3.2-3.3 6.4-6.8 9.5-10.3 6.6-7.7 5.8-19.4-1.9-26.1z"/>
				<path id="Layer" class="s1" d="m483.7 278.7c-10.2-0.3-18.7 7.8-19 18-0.2 3.9-0.4 7.8-0.8 11.7-0.9 10.2 6.6 19.2 16.8 20.1q0.8 0.1 1.7 0.1c9.4 0 17.5-7.2 18.3-16.8 0.5-4.7 0.8-9.4 0.9-14 0.3-10.2-7.7-18.8-17.9-19.1z"/>
				<path id="Layer" class="s1" d="m475.5 350.4c-9.6-3.7-20.3 1-24 10.5-1.4 3.6-3 7.3-4.6 10.8-4.3 9.3-0.3 20.2 9 24.5 2.5 1.2 5.1 1.8 7.7 1.8 7 0 13.7-4 16.8-10.8 2-4.2 3.8-8.5 5.5-12.9 3.7-9.5-0.9-20.2-10.4-23.9z"/>
				<path id="Layer" class="s1" d="m412.5 131.9c6.1-8.2 4.4-19.7-3.8-25.8-3.8-2.8-7.6-5.5-11.5-8-8.6-5.6-20.1-3.1-25.6 5.4-5.6 8.6-3.2 20 5.4 25.6 3.3 2.1 6.5 4.4 9.7 6.7 3.3 2.4 7.1 3.6 11 3.6 5.6 0 11.2-2.6 14.8-7.5z"/>
			</g>
		</g>
	</g>
</svg>